<?xml version="1.0" encoding="UTF-8" standalone="no"?>
<svg
   xmlns:dc="http://purl.org/dc/elements/1.1/"
   xmlns:cc="http://creativecommons.org/ns#"
   xmlns:rdf="http://www.w3.org/1999/02/22-rdf-syntax-ns#"
   xmlns:svg="http://www.w3.org/2000/svg"
   xmlns="http://www.w3.org/2000/svg"
   xmlns:sodipodi="http://sodipodi.sourceforge.net/DTD/sodipodi-0.dtd"
   xmlns:inkscape="http://www.inkscape.org/namespaces/inkscape"
   version="1.1"
   x="0px"
   y="0px"
   viewBox="0 0 128 160"
   enable-background="new 0 0 128 128"
   xml:space="preserve"
   id="svg2"
   inkscape:version="0.91 r13725"
   sodipodi:docname="pub-abonnement.svg"
   inkscape:export-xdpi="640"
   inkscape:export-ydpi="640"><metadata
     id="metadata80"><rdf:RDF><cc:Work
         rdf:about=""><dc:format>image/svg+xml</dc:format><dc:type
           rdf:resource="http://purl.org/dc/dcmitype/StillImage" /><dc:title></dc:title></cc:Work></rdf:RDF></metadata><defs
     id="defs78" /><sodipodi:namedview
     pagecolor="#e870c2"
     bordercolor="#666666"
     borderopacity="1"
     objecttolerance="10"
     gridtolerance="10"
     guidetolerance="10"
     inkscape:pageopacity="0"
     inkscape:pageshadow="2"
     inkscape:window-width="1920"
     inkscape:window-height="1048"
     id="namedview76"
     showgrid="false"
     inkscape:zoom="5.12"
     inkscape:cx="50.449847"
     inkscape:cy="85.164662"
     inkscape:window-x="0"
     inkscape:window-y="0"
     inkscape:window-maximized="1"
     inkscape:current-layer="g4" /><g
     id="g4"><text
       xml:space="preserve"
       style="font-style:normal;font-weight:normal;font-size:12.5px;line-height:125%;font-family:sans-serif;letter-spacing:0px;word-spacing:0px;fill:#000000;fill-opacity:1;stroke:#ffffff;stroke-width:1px;stroke-linecap:butt;stroke-linejoin:miter;stroke-opacity:1;"
       x="75.682526"
       y="57.524757"
       id="text4270"
       sodipodi:linespacing="125%"
       inkscape:export-xdpi="640"
       inkscape:export-ydpi="640"><tspan
         sodipodi:role="line"
         id="tspan4272"
         x="75.682526"
         y="57.524757" /></text>
<g
       id="g4360"
       transform="translate(0.55242916,0.82864072)"
       style="stroke:#ffffff;stroke-opacity:1"
       inkscape:export-xdpi="640"
       inkscape:export-ydpi="640"><path
         inkscape:connector-curvature="0"
         id="path4331"
         d="m 16.296602,36.532526 0,62.148058 95.293688,0.276213 0.27621,-62.148057 z"
         style="fill:none;fill-rule:evenodd;stroke:#ffffff;stroke-width:1px;stroke-linecap:butt;stroke-linejoin:miter;stroke-opacity:1" /><rect
         ry="3.3545692"
         y="32.6539"
         x="12.003658"
         height="70.043404"
         width="104.84633"
         id="rect4352"
         style="opacity:1;fill:none;fill-opacity:1;fill-rule:nonzero;stroke:#ffffff;stroke-width:1.07073486;stroke-linecap:round;stroke-linejoin:round;stroke-miterlimit:4;stroke-dasharray:none;stroke-opacity:1" /><path
         inkscape:connector-curvature="0"
         id="path4354"
         d="m 59.524028,103.23811 -4.005097,12.2915"
         style="fill:none;fill-rule:evenodd;stroke:#ffffff;stroke-width:1px;stroke-linecap:butt;stroke-linejoin:miter;stroke-opacity:1" /><path
         inkscape:connector-curvature="0"
         id="path4356"
         d="m 69.053397,102.82379 4.281311,12.98204"
         style="fill:none;fill-rule:evenodd;stroke:#ffffff;stroke-width:1px;stroke-linecap:butt;stroke-linejoin:miter;stroke-opacity:1" /><rect
         ry="2.5723929"
         y="115.51221"
         x="47.215107"
         height="5.1447859"
         width="34.423424"
         id="rect4358"
         style="opacity:1;fill:none;fill-opacity:1;fill-rule:nonzero;stroke:#ffffff;stroke-width:1.05916548;stroke-linecap:round;stroke-linejoin:round;stroke-miterlimit:4;stroke-dasharray:none;stroke-opacity:1" /></g><text
       xml:space="preserve"
       style="font-style:normal;font-weight:normal;font-size:9.16137028px;line-height:125%;font-family:sans-serif;letter-spacing:0px;word-spacing:0px;fill:#ffffff;fill-opacity:1;stroke:none;stroke-width:1px;stroke-linecap:butt;stroke-linejoin:miter;stroke-opacity:1;"
       x="46.720818"
       y="88.989311"
       id="text4460"
       sodipodi:linespacing="125%"
       inkscape:export-xdpi="640.76001"
       inkscape:export-ydpi="640.76001"><tspan
         sodipodi:role="line"
         id="tspan4462"
         x="46.720818"
         y="88.989311"
         style="font-size:7.32909632px;fill:#ffffff;fill-opacity:1;">9€ / mois</tspan></text>
<rect
       style="opacity:1;fill:none;fill-opacity:1;fill-rule:nonzero;stroke:#ffffff;stroke-width:0.80180311;stroke-linecap:round;stroke-linejoin:round;stroke-miterlimit:4;stroke-dasharray:none;stroke-opacity:1"
       id="rect4464"
       width="53.250465"
       height="12.596885"
       x="37.130009"
       y="79.971092"
       ry="2.4585967"
       inkscape:export-xdpi="640"
       inkscape:export-ydpi="640" /><path
       style="fill:none;fill-rule:evenodd;stroke:#ffffff;stroke-width:1px;stroke-linecap:butt;stroke-linejoin:miter;stroke-opacity:1"
       d="m 48.147054,48.484329 31.395252,0"
       id="path4367"
       inkscape:connector-curvature="0"
       sodipodi:nodetypes="cc"
       inkscape:export-xdpi="640"
       inkscape:export-ydpi="640" /><path
       style="fill:none;fill-rule:evenodd;stroke:#ffffff;stroke-width:1px;stroke-linecap:butt;stroke-linejoin:miter;stroke-opacity:1"
       d="m 47.984903,52.489426 31.626456,0"
       id="path4367-9"
       inkscape:connector-curvature="0"
       inkscape:export-xdpi="640"
       inkscape:export-ydpi="640" /><path
       style="fill:none;fill-rule:evenodd;stroke:#ffffff;stroke-width:1px;stroke-linecap:butt;stroke-linejoin:miter;stroke-opacity:1"
       d="m 47.950376,56.563577 26.157706,0"
       id="path4367-1"
       inkscape:connector-curvature="0"
       sodipodi:nodetypes="cc"
       inkscape:export-xdpi="640"
       inkscape:export-ydpi="640" /><path
       style="fill:none;fill-rule:evenodd;stroke:#ffffff;stroke-width:1px;stroke-linecap:butt;stroke-linejoin:miter;stroke-opacity:1"
       d="m 48.019429,60.568674 16.978018,0"
       id="path4367-9-2"
       inkscape:connector-curvature="0"
       sodipodi:nodetypes="cc"
       inkscape:export-xdpi="640"
       inkscape:export-ydpi="640" /><path
       style="fill:none;fill-rule:evenodd;stroke:#ffffff;stroke-width:1px;stroke-linecap:butt;stroke-linejoin:miter;stroke-opacity:1"
       d="m 48.123011,64.608297 17.368644,0"
       id="path4367-9-7"
       inkscape:connector-curvature="0"
       sodipodi:nodetypes="cc"
       inkscape:export-xdpi="640"
       inkscape:export-ydpi="640" /><path
       style="fill:none;fill-rule:evenodd;stroke:#ffffff;stroke-width:1px;stroke-linecap:butt;stroke-linejoin:miter;stroke-opacity:1"
       d="m 48.088484,68.682448 31.626454,0"
       id="path4367-1-0"
       inkscape:connector-curvature="0"
       inkscape:export-xdpi="640"
       inkscape:export-ydpi="640" /><path
       style="fill:none;fill-rule:evenodd;stroke:#ffffff;stroke-width:1px;stroke-linecap:butt;stroke-linejoin:miter;stroke-opacity:1"
       d="m 48.157537,72.687545 31.626461,0"
       id="path4367-9-2-9"
       inkscape:connector-curvature="0"
       inkscape:export-xdpi="640"
       inkscape:export-ydpi="640" /><g
       transform="matrix(0.02319885,0,0,0.02319885,67.002953,50.743163)"
       id="g6"
       style="stroke:#ffffff;stroke-opacity:1;fill:#ffffff"
       inkscape:export-xdpi="640"
       inkscape:export-ydpi="640"><path
         inkscape:connector-curvature="0"
         d="m 982.8,439.1 c -1.9,-13.9 -13.6,-37.6 -46.7,-39.2 l -43,-2 -0.7,0 -0.7,0 c -0.2,0 -1.6,0.1 -4,0.1 -14.8,0 -33.9,-2.5 -42.8,-9.4 -3.5,-2.7 -86.9,-67.3 -205.9,-76 -1.1,-0.1 -27.1,-2 -62.6,-2 -50.9,0 -120.4,4 -162.6,22.9 -1.9,0.9 -45.9,21.3 -79.1,44.4 l -0.3,0.2 c -0.4,0.3 -39.8,28.9 -95.9,36.1 -5.1,0.4 -56.6,5.2 -109.1,18.6 C 50.7,453 10.6,482.6 10,520.9 l 0,0.2 0.1,13.4 c -0.1,5.9 -0.2,71.6 49.1,93.1 l 2.9,1.3 56.7,0 c 16.5,35.7 52.6,60.6 94.5,60.6 41.9,0 78,-24.9 94.5,-60.6 l 386.5,0 c 16.5,35.7 52.6,60.6 94.5,60.6 41.9,0 78,-24.9 94.5,-60.6 l 32.7,0 0.7,-0.1 c 24.6,-2.3 71.6,-25.2 73.3,-95.6 l 0,-17.6 c -0.1,-5.8 -0.8,-55 -7.2,-76.5 z M 213.3,659.2 c -28.8,0 -53.7,-16.5 -65.9,-40.5 l -2.8,-9.3 c -0.1,-0.4 -8.4,-29 2,-55.8 7.2,-15.2 19.5,-27.5 34.6,-34.8 8.1,-3.1 20.1,-6.5 33.6,-6.5 12.6,0 24.4,3 35.2,8.9 10.4,6 19.3,14.4 25.7,24.6 6.4,12 14.2,34.5 4.7,63.1 l -6,18 c -13.3,19.5 -35.7,32.3 -61.1,32.3 z m 575.5,0 c -34.5,0 -63.5,-23.6 -71.6,-55.6 -1.9,-14.2 -3.1,-49 24.7,-72.6 13,-11.1 29.7,-17.1 46.9,-17.1 23.8,0 45.5,11.5 57.8,30.7 l 0.7,1 c 0.2,0.2 17.6,24.8 8,64.7 l -3.2,13.2 c -12.9,21.3 -36.4,35.7 -63.3,35.7 z m 171,-126.6 c -1.4,57.2 -38.7,65.1 -45.4,66 l -22.4,0 c 0.6,-4.3 0.9,-8.8 0.9,-13.3 0,-57.4 -46.7,-104.1 -104.1,-104.1 -57.4,0 -104.1,46.8 -104.1,104.1 0,4.5 0.3,8.9 0.9,13.3 l -369.1,0 c 0.6,-4.3 0.9,-8.8 0.9,-13.3 0,-20.2 -5.8,-39.1 -15.9,-55.1 -4.7,-8.5 -8.9,-13.4 -9.4,-13.9 l -0.5,-0.5 c -8.3,-8.6 -17.3,-15.6 -27,-20.9 -15.1,-8.6 -32.6,-13.6 -51.3,-13.6 -15.4,0 -30.1,3.4 -43.3,9.5 -8.8,3.4 -14.2,6.5 -14.6,6.8 l -0.5,0.3 c -17.9,11.6 -29,26.9 -35.6,42.9 -6.4,13.5 -10,28.6 -10,44.5 0,4.5 0.3,8.9 0.9,13.3 l -41.5,0 C 39.6,583.2 40.3,535.5 40.4,535 l 0,-0.3 -0.1,-13.5 c 1,-41.4 118.1,-69.9 201.1,-76.9 l 0.6,-0.1 c 62.8,-8 106.3,-38.8 110.1,-41.6 31,-21.6 73.9,-41.5 74.2,-41.6 37.2,-16.7 102.2,-20.2 150.1,-20.2 34.4,0 60.2,1.9 60.4,1.9 109.4,8.1 188.7,69.1 189.5,69.7 17.7,13.7 46,15.8 61.4,15.8 2.2,0 3.8,0 4.7,-0.1 l 42.3,1.9 c 15,0.7 17.8,9.8 18.2,13.4 l 0,1.5 0.7,2 c 4,12.1 5.9,48.6 6.1,68.6 l 0,17.1 z"
         id="path8-3"
         style="stroke:#ffffff;stroke-opacity:1;fill:#ffffff" /></g></g></svg>
