<?xml version="1.0" encoding="UTF-8" standalone="no"?>
<!-- Generator: Adobe Illustrator 19.1.0, SVG Export Plug-In . SVG Version: 6.00 Build 0)  -->

<svg
   xmlns:dc="http://purl.org/dc/elements/1.1/"
   xmlns:cc="http://creativecommons.org/ns#"
   xmlns:rdf="http://www.w3.org/1999/02/22-rdf-syntax-ns#"
   xmlns:svg="http://www.w3.org/2000/svg"
   xmlns="http://www.w3.org/2000/svg"
   xmlns:sodipodi="http://sodipodi.sourceforge.net/DTD/sodipodi-0.dtd"
   xmlns:inkscape="http://www.inkscape.org/namespaces/inkscape"
   version="1.1"
   x="0px"
   y="0px"
   viewBox="0 0 64 64"
   style="enable-background:new 0 0 64 64;"
   xml:space="preserve"
   id="svg2"
   inkscape:version="0.91 r13725"
   sodipodi:docname="icône-journal.svg"><metadata
     id="metadata110"><rdf:RDF><cc:Work
         rdf:about=""><dc:format>image/svg+xml</dc:format><dc:type
           rdf:resource="http://purl.org/dc/dcmitype/StillImage" /><dc:title></dc:title></cc:Work></rdf:RDF></metadata><defs
     id="defs108" /><sodipodi:namedview
     pagecolor="#ffffff"
     bordercolor="#666666"
     borderopacity="1"
     objecttolerance="10"
     gridtolerance="10"
     guidetolerance="10"
     inkscape:pageopacity="0"
     inkscape:pageshadow="2"
     inkscape:window-width="1920"
     inkscape:window-height="1048"
     id="namedview106"
     showgrid="false"
     inkscape:zoom="3.6875"
     inkscape:cx="10.169492"
     inkscape:cy="32"
     inkscape:window-x="0"
     inkscape:window-y="0"
     inkscape:window-maximized="1"
     inkscape:current-layer="Layer_1" /><style
     type="text/css"
     id="style4">
	.st0{fill:#C75C5C;}
	.st1{opacity:0.2;}
	.st2{fill:#231F20;}
	.st3{fill:#E0E0D1;}
	.st4{fill:#4F5D73;}
</style><g
     id="Layer_1"><g
       id="g7"><circle
         class="st0"
         cx="32"
         cy="32"
         r="32"
         id="circle9"
         style="fill:#42c299;fill-opacity:1" /></g><g
       id="g15"
       style="fill:#ffffff;fill-opacity:1"><path
         class="st3"
         d="M52,48c0,2.2-1.8,4-4,4H16c-2.2,0-4-1.8-4-4V20c0-2.2,1.8-4,4-4h32c2.2,0,4,1.8,4,4V48z"
         id="path17"
         style="fill:#ffffff;fill-opacity:1" /></g><g
       class="st1"
       id="g19"
       style="fill:#ffffff;fill-opacity:1"><path
         class="st2"
         d="M52,46c0,2.2-1.8,4-4,4H16c-2.2,0-4-1.8-4-4V18c0-2.2,1.8-4,4-4h32c2.2,0,4,1.8,4,4V46z"
         id="path21"
         style="fill:#ffffff;fill-opacity:1" /></g><g
       id="g23"
       style="fill:#ffffff;fill-opacity:1"><path
         class="st3"
         d="M52,44c0,2.2-1.8,4-4,4H16c-2.2,0-4-1.8-4-4V16c0-2.2,1.8-4,4-4h32c2.2,0,4,1.8,4,4V44z"
         id="path25"
         style="fill:#ffffff;fill-opacity:1" /></g><g
       id="g27"
       style="fill:#42c299;fill-opacity:1"><rect
         x="16"
         y="24"
         class="st4"
         width="12"
         height="12"
         id="rect29"
         style="fill:#42c299;fill-opacity:1" /></g><g
       id="g31"
       style="fill:#42c299;fill-opacity:1"><rect
         x="36"
         y="27"
         class="st4"
         width="12"
         height="1"
         id="rect33"
         style="fill:#42c299;fill-opacity:1" /></g><g
       id="g35"
       style="fill:#42c299;fill-opacity:1"><rect
         x="36"
         y="25"
         class="st4"
         width="12"
         height="1"
         id="rect37"
         style="fill:#42c299;fill-opacity:1" /></g><g
       id="g39"
       style="fill:#42c299;fill-opacity:1"><rect
         x="32"
         y="24"
         class="st4"
         width="3"
         height="4"
         id="rect41"
         style="fill:#42c299;fill-opacity:1" /></g><g
       id="g43"
       style="fill:#42c299;fill-opacity:1"><rect
         x="32"
         y="30"
         class="st4"
         width="16"
         height="1"
         id="rect45"
         style="fill:#42c299;fill-opacity:1" /></g><g
       id="g47"
       style="fill:#42c299;fill-opacity:1"><rect
         x="32"
         y="32"
         class="st4"
         width="16"
         height="1"
         id="rect49"
         style="fill:#42c299;fill-opacity:1" /></g><g
       id="g51"
       style="fill:#42c299;fill-opacity:1"><rect
         x="32"
         y="34"
         class="st4"
         width="16"
         height="1"
         id="rect53"
         style="fill:#42c299;fill-opacity:1" /></g><g
       id="g55"
       style="fill:#42c299;fill-opacity:1"><rect
         x="32"
         y="36"
         class="st4"
         width="16"
         height="1"
         id="rect57"
         style="fill:#42c299;fill-opacity:1" /></g><g
       id="g59"
       style="fill:#42c299;fill-opacity:1"><rect
         x="35.9"
         y="39"
         class="st4"
         width="12.1"
         height="1"
         id="rect61"
         style="fill:#42c299;fill-opacity:1" /></g><g
       id="g63"
       style="fill:#42c299;fill-opacity:1"><rect
         x="16"
         y="39"
         class="st4"
         width="12"
         height="1"
         id="rect65"
         style="fill:#42c299;fill-opacity:1" /></g><g
       id="g67"
       style="fill:#42c299;fill-opacity:1"><rect
         x="16"
         y="41"
         class="st4"
         width="12"
         height="1"
         id="rect69"
         style="fill:#42c299;fill-opacity:1" /></g><g
       id="g71"
       style="fill:#42c299;fill-opacity:1"><rect
         x="16"
         y="43"
         class="st4"
         width="12"
         height="1"
         id="rect73"
         style="fill:#42c299;fill-opacity:1" /></g><g
       id="g75"
       style="fill:#42c299;fill-opacity:1"><rect
         x="16"
         y="45"
         class="st4"
         width="12"
         height="1"
         id="rect77"
         style="fill:#42c299;fill-opacity:1" /></g><g
       id="g79"
       style="fill:#42c299;fill-opacity:1"><rect
         x="32"
         y="41"
         class="st4"
         width="16"
         height="1"
         id="rect81"
         style="fill:#42c299;fill-opacity:1" /></g><g
       id="g83"
       style="fill:#42c299;fill-opacity:1"><rect
         x="32"
         y="43"
         class="st4"
         width="16"
         height="1"
         id="rect85"
         style="fill:#42c299;fill-opacity:1" /></g><g
       id="g87"
       style="fill:#42c299;fill-opacity:1"><rect
         x="32"
         y="45"
         class="st4"
         width="16"
         height="1"
         id="rect89"
         style="fill:#42c299;fill-opacity:1" /></g><g
       id="g91"
       style="fill:#ffffff;fill-opacity:1"><circle
         class="st3"
         cx="24"
         cy="28"
         r="2"
         id="circle93"
         style="fill:#ffffff;fill-opacity:1" /></g><g
       id="g95"
       style="fill:#42c299;fill-opacity:1"><rect
         x="16"
         y="16"
         class="st4"
         width="32"
         height="4"
         id="rect97"
         style="fill:#42c299;fill-opacity:1" /></g><g
       id="g99"
       style="fill:#ffffff;fill-opacity:1"><g
         id="g101"
         style="fill:#ffffff;fill-opacity:1"><path
           class="st3"
           d="M27,35v-2.4l-0.8-0.8c-0.5-0.5-1.3-0.5-1.8,0l-0.8,0.8l-1.9-1.9c-1-1-2.6-1-3.5,0L17,31.9V35H27z"
           id="path103"
           style="fill:#ffffff;fill-opacity:1" /></g></g></g><g
     id="Layer_2" /></svg>